<?xml version="1.0" standalone="no"?>
<!DOCTYPE svg PUBLIC "-//W3C//DTD SVG 20010904//EN"
 "http://www.w3.org/TR/2001/REC-SVG-20010904/DTD/svg10.dtd">
<svg version="1.0" xmlns="http://www.w3.org/2000/svg"
 width="660.000000pt" height="660.000000pt" viewBox="0 0 660.000000 660.000000"
 preserveAspectRatio="xMidYMid meet">

<g transform="translate(0.000000,660.000000) scale(0.100000,-0.100000)"
fill="current" stroke="none">
<path d="M286 6480 c-68 -26 -141 -101 -166 -168 -20 -52 -20 -83 -20 -2987 0
-2908 0 -2935 20 -2988 24 -63 84 -127 149 -159 l46 -23 2975 -3 c3286 -2
3032 -7 3122 61 51 39 83 85 101 141 9 32 11 653 9 2986 -4 2899 -4 2946 -23
2990 -28 63 -74 108 -146 141 l-63 29 -2977 0 c-2917 -1 -2979 -1 -3027 -20z
m2832 -503 c23 -15 55 -44 70 -65 l27 -38 40 18 c48 21 133 23 178 5 41 -18
103 -86 111 -125 7 -30 7 -30 69 -25 83 5 131 -21 168 -92 l25 -51 41 46 c22
25 67 59 99 75 53 27 68 30 154 30 81 0 103 -4 150 -26 63 -30 131 -92 157
-144 l19 -35 42 31 c121 89 275 77 383 -31 47 -47 58 -65 73 -121 l18 -66 73
5 c86 5 127 -6 188 -53 68 -52 100 -124 95 -213 l-3 -70 62 -4 c74 -5 129 -38
178 -107 26 -37 30 -53 33 -119 3 -63 -1 -84 -18 -117 -15 -30 -17 -41 -8 -44
28 -8 94 -89 106 -128 22 -74 10 -130 -44 -201 l-26 -33 20 -22 c11 -12 25
-32 31 -44 13 -26 15 -108 1 -132 -8 -15 -1 -21 40 -40 108 -49 200 -169 215
-282 9 -59 -9 -151 -39 -209 l-24 -46 44 -18 c64 -26 128 -87 154 -148 52
-121 30 -242 -60 -330 l-48 -46 34 -33 c70 -67 85 -220 32 -305 -33 -51 -87
-99 -131 -115 l-34 -12 24 -43 c14 -24 27 -68 30 -98 13 -127 -99 -255 -223
-256 l-41 0 -6 -45 c-7 -51 -35 -111 -64 -137 -52 -47 -150 -70 -207 -48 -23
8 -26 7 -26 -13 0 -48 -74 -127 -120 -127 -12 0 -15 -17 -16 -93 0 -80 -4 -99
-28 -145 -61 -119 -162 -190 -283 -200 l-62 -5 6 -57 c15 -144 -74 -275 -215
-316 -47 -14 -68 -15 -117 -7 -33 6 -67 14 -75 17 -11 5 -19 -5 -28 -36 -20
-66 -55 -111 -113 -149 -45 -29 -64 -34 -124 -37 -57 -3 -82 0 -123 18 -28 12
-57 28 -63 36 -14 18 -29 18 -29 1 0 -23 -70 -97 -111 -118 -58 -29 -117 -34
-182 -15 -45 13 -64 26 -105 71 l-49 55 -48 -21 c-94 -42 -207 -5 -259 84 -15
24 -26 51 -26 59 0 13 -6 14 -39 5 -75 -20 -164 26 -194 102 l-16 38 -50 -48
c-61 -59 -108 -84 -186 -98 -73 -14 -157 -1 -228 35 -54 28 -129 101 -147 144
l-12 28 -43 -33 c-57 -43 -106 -59 -181 -57 -83 1 -151 31 -209 93 -48 51 -62
79 -74 144 -5 27 -12 39 -21 37 -135 -31 -253 16 -318 126 -23 40 -27 58 -27
123 l0 77 -56 5 c-96 8 -167 61 -205 152 -21 52 -18 140 8 194 16 34 18 46 9
49 -26 9 -79 63 -95 96 -9 19 -16 59 -16 93 0 48 5 68 29 105 16 25 34 49 40
53 8 4 2 18 -18 41 -36 40 -48 94 -33 149 6 22 10 40 9 40 -1 0 -33 15 -70 34
-103 51 -166 139 -187 263 -10 55 -9 76 4 129 9 34 26 77 37 95 l20 33 -48 21
c-190 83 -236 328 -91 477 l41 42 -33 41 c-42 54 -59 102 -59 170 0 105 52
190 143 235 l53 26 -24 46 c-30 60 -32 157 -4 211 39 76 112 126 199 138 l52
7 0 48 c0 38 6 56 33 91 48 64 106 90 189 86 65 -4 66 -3 72 23 7 38 60 96 99
108 l32 11 1 87 c0 105 19 153 87 228 65 72 133 107 222 113 l72 4 -10 45
c-11 52 5 150 31 192 27 44 85 102 122 121 69 35 171 42 233 17 l35 -15 12 44
c26 92 99 159 203 185 62 15 138 0 198 -41 l43 -28 13 26 c22 42 74 93 118
114 61 29 168 22 223 -15z"/>
<path d="M3122 5570 c-74 -50 -167 -52 -248 -5 l-41 24 -18 -38 c-22 -49 -74
-103 -123 -127 -28 -14 -59 -19 -129 -19 l-91 0 -15 -55 c-22 -78 -76 -143
-150 -180 -33 -16 -73 -30 -89 -30 -33 0 -32 2 -12 -61 24 -71 15 -181 -19
-251 -27 -56 -106 -143 -138 -153 -21 -7 -25 -20 -9 -30 19 -11 51 -85 61
-138 12 -67 -3 -148 -36 -199 -14 -21 -21 -38 -15 -38 5 0 27 -16 49 -35 67
-60 98 -168 77 -262 -7 -32 -6 -33 37 -44 90 -22 163 -117 174 -224 l6 -53 53
-4 c65 -6 118 -43 150 -105 20 -40 21 -40 49 -26 72 38 188 -7 224 -87 14 -32
20 -37 35 -28 10 6 33 8 50 5 31 -5 33 -3 50 46 10 29 29 66 42 83 20 28 21
34 9 44 -21 18 -35 77 -25 105 7 20 5 25 -19 35 -62 25 -111 98 -111 164 0 35
23 101 39 110 5 4 -12 28 -38 54 -88 88 -91 195 -7 278 l41 41 -27 39 c-28 41
-48 104 -48 150 0 81 73 187 151 218 32 13 39 20 34 34 -15 37 -22 127 -13
168 22 104 125 196 233 209 l52 7 6 54 c3 32 16 73 31 98 28 48 110 126 133
126 11 0 10 6 -4 28 -9 15 -18 28 -18 30 -1 1 -18 -5 -38 -13 -47 -20 -120
-19 -160 1 -18 9 -48 31 -67 50 l-35 33 -43 -29z"/>
<path d="M4345 5149 c-64 -66 -132 -93 -240 -93 -78 -1 -98 3 -149 27 -32 15
-60 26 -60 25 -1 -2 -7 -14 -13 -28 -43 -99 -151 -170 -257 -170 -53 0 -56 -1
-62 -27 -23 -111 -96 -201 -182 -227 -30 -9 -46 -19 -43 -27 31 -116 -18 -245
-112 -290 l-43 -21 20 -42 c35 -69 21 -174 -28 -216 -15 -11 -12 -17 20 -47
44 -43 54 -69 54 -136 0 -39 -6 -62 -25 -89 l-25 -38 20 -20 c11 -11 20 -27
20 -36 0 -10 6 -13 18 -10 26 9 148 9 161 1 6 -3 11 1 11 10 0 24 55 75 80 75
20 0 22 4 16 31 -16 79 49 178 129 198 25 6 55 9 68 6 20 -5 22 -2 23 35 4
124 150 215 268 166 33 -14 33 -14 45 21 17 46 75 110 120 132 81 41 178 33
251 -20 l40 -29 33 36 c67 77 209 108 303 65 41 -19 113 -81 130 -114 9 -16
12 -16 53 4 93 44 217 32 296 -31 30 -23 41 -28 52 -19 11 10 10 14 -9 27 -75
52 -111 178 -73 252 15 29 15 30 -17 43 -85 36 -141 121 -141 217 l0 55 -56 0
c-31 0 -77 8 -103 18 -61 24 -133 102 -152 166 -11 36 -17 45 -32 42 -11 -2
-56 -6 -100 -8 -76 -4 -86 -2 -142 26 -34 17 -74 47 -89 66 -15 19 -30 35 -33
35 -3 0 -24 -19 -45 -41z"/>
<path d="M1500 4532 c0 -20 -10 -55 -23 -77 -28 -50 -108 -105 -151 -105 l-32
0 0 -62 c1 -82 -39 -159 -103 -199 -24 -16 -49 -30 -54 -32 -7 -2 -2 -15 11
-32 26 -32 52 -114 52 -161 0 -52 -37 -137 -75 -174 l-34 -33 38 -37 c88 -86
109 -194 66 -336 -6 -18 -2 -22 28 -27 59 -9 147 -59 188 -105 51 -58 78 -118
92 -200 l12 -67 48 3 c97 6 212 -56 262 -143 l26 -44 34 15 c19 8 65 14 102
14 79 0 133 -21 179 -68 l30 -32 29 30 c34 35 120 70 173 70 45 -1 107 -22
133 -46 20 -18 21 -18 31 1 39 71 136 123 204 110 30 -5 34 -3 40 22 11 53 15
61 35 87 34 43 95 69 151 64 46 -5 48 -4 48 19 0 15 12 37 30 53 l29 27 -23
23 c-13 12 -34 41 -47 64 -22 42 -23 43 -69 38 -48 -4 -110 18 -110 39 0 6
-14 -1 -31 -15 -38 -32 -67 -40 -129 -34 -56 6 -111 42 -135 88 -14 28 -15 28
-45 13 -74 -36 -154 -25 -216 30 -43 37 -64 76 -64 117 l0 31 -49 -7 c-77 -10
-143 10 -200 62 -62 56 -84 110 -79 192 l3 60 -43 5 c-90 10 -186 101 -213
200 -14 52 -6 134 16 178 17 33 17 33 -6 48 -13 8 -43 35 -66 59 -57 59 -77
122 -71 223 4 59 1 79 -9 83 -9 4 -13 -5 -13 -32z"/>
<path d="M4466 3973 c-8 -12 -41 -34 -71 -49 -49 -23 -64 -26 -125 -22 -53 4
-80 12 -110 32 -29 19 -40 22 -40 12 0 -23 -49 -75 -93 -97 -29 -15 -54 -20
-93 -17 -52 3 -54 2 -54 -23 0 -36 -53 -115 -92 -135 -18 -10 -58 -18 -88 -19
-45 -2 -56 -5 -59 -21 -1 -10 -10 -27 -19 -37 -14 -16 -13 -19 5 -40 23 -24
63 -96 63 -112 0 -5 22 -10 49 -10 38 0 55 -5 75 -24 l25 -24 30 26 c40 33
115 44 165 23 39 -16 96 -72 96 -93 0 -17 15 -16 52 3 50 26 146 16 193 -20
44 -34 72 -77 80 -125 l6 -36 84 0 c77 0 87 -2 126 -30 24 -17 57 -50 74 -74
26 -37 30 -53 33 -121 l4 -78 47 -12 c165 -41 251 -204 191 -362 -18 -49 -19
-53 -3 -62 40 -22 106 -93 126 -135 22 -49 30 -164 14 -208 -6 -18 -5 -23 7
-23 10 0 16 9 16 25 0 36 27 95 58 129 29 30 101 66 133 66 17 0 19 8 19 59 0
32 7 75 15 95 19 45 86 113 120 122 26 6 33 28 14 40 -24 15 -51 96 -51 158 0
74 23 136 71 183 l32 32 -42 42 c-59 59 -83 118 -83 204 0 41 7 85 16 107 l16
36 -36 7 c-105 20 -223 118 -260 218 -12 32 -22 80 -22 106 l0 48 -83 5 c-67
3 -93 9 -129 31 -53 31 -115 97 -124 131 -5 23 -7 23 -35 9 -85 -42 -219 -21
-288 46 l-38 36 -17 -22z"/>
<path d="M3671 3178 c-12 -26 -34 -61 -48 -79 l-27 -31 21 -17 c32 -25 46 -60
39 -101 -5 -35 -4 -39 24 -50 37 -15 87 -71 96 -106 11 -42 -2 -124 -23 -152
l-20 -26 31 -21 c100 -68 113 -211 26 -298 l-39 -38 32 -50 c36 -58 48 -151
28 -212 -18 -53 -84 -123 -137 -143 -34 -13 -43 -21 -38 -33 47 -116 15 -245
-81 -321 -49 -38 -101 -58 -155 -59 -34 -1 -35 -2 -37 -45 -3 -82 -73 -195
-144 -232 -26 -13 -27 -17 -17 -39 13 -29 11 -29 68 -9 74 26 170 -2 221 -64
l24 -28 43 30 c34 24 55 31 108 34 68 5 135 -10 155 -35 18 -21 25 -16 57 41
34 59 99 109 166 127 39 11 112 8 147 -6 13 -5 19 4 28 41 31 121 119 207 234
228 42 8 42 7 22 61 -44 123 11 292 124 379 55 41 58 47 37 65 -8 6 -24 35
-36 63 -29 68 -26 181 8 250 l23 47 -40 36 c-77 70 -113 195 -81 279 8 23 7
26 -11 26 -31 0 -82 25 -121 59 -47 41 -78 108 -78 170 l0 48 -49 5 c-74 7
-121 36 -156 96 -21 36 -35 50 -45 46 -48 -19 -95 -24 -128 -13 -43 14 -108
72 -116 102 -4 19 -12 22 -59 22 l-54 0 -22 -47z"/>
<path d="M3260 2954 c0 -33 -42 -87 -76 -97 -28 -8 -30 -12 -30 -61 -2 -104
-73 -176 -174 -176 -36 0 -38 -1 -44 -42 -21 -130 -149 -208 -260 -159 -38 16
-46 17 -46 5 0 -24 -36 -87 -67 -116 -42 -40 -111 -68 -168 -68 -53 0 -139 33
-164 64 -13 15 -17 13 -47 -22 -62 -73 -180 -106 -276 -78 -58 16 -151 89
-163 125 -5 17 -7 17 -48 -3 -51 -25 -168 -34 -222 -16 -20 6 -56 27 -81 46
-35 27 -46 31 -50 20 -4 -9 8 -27 29 -46 47 -41 70 -103 64 -172 -2 -29 -7
-62 -11 -73 -6 -16 1 -24 39 -44 76 -40 135 -150 123 -230 l-4 -29 70 -4 c86
-6 140 -31 190 -90 20 -23 43 -66 52 -94 l15 -51 42 14 c100 35 243 -6 310
-90 l31 -38 45 45 c25 25 72 57 104 71 52 24 67 27 150 23 75 -3 101 -8 143
-29 l51 -27 11 32 c34 92 149 168 259 170 l63 1 0 33 c0 81 98 198 185 222 33
9 44 17 41 27 -4 8 -9 38 -12 66 -5 46 -1 60 28 117 26 51 44 72 84 98 l51 34
-19 36 c-32 63 -21 161 23 208 19 20 19 21 -20 62 -60 62 -68 156 -21 222 l21
30 -20 29 c-12 16 -21 40 -21 53 0 23 -2 23 -90 23 -85 0 -90 -1 -90 -21z"/>
</g>
</svg>
