<?xml version="1.0" standalone="no"?>
<!DOCTYPE svg PUBLIC "-//W3C//DTD SVG 20010904//EN"
        "http://www.w3.org/TR/2001/REC-SVG-20010904/DTD/svg10.dtd">
<svg version="1.0" xmlns="http://www.w3.org/2000/svg"
     width="125.000000pt" height="125.000000pt" viewBox="0 0 125.000000 125.000000"
     preserveAspectRatio="xMidYMid meet">

    <g transform="translate(0.000000,125.000000) scale(0.100000,-0.100000)"
       fill="current" stroke="none">
        <path d="M121 1243 c-13 -3 -43 -24 -66 -48 -33 -33 -45 -53 -50 -87 -4 -24
-5 -258 -3 -519 l3 -475 24 -35 c13 -19 35 -43 50 -54 25 -19 44 -20 535 -23
l508 -3 43 25 c27 16 50 40 63 66 19 38 20 63 21 519 1 306 -2 494 -8 518 -12
45 -62 96 -110 112 -33 11 -953 14 -1010 4z m264 -253 c31 -12 59 -71 49 -103
-35 -115 -202 -80 -180 38 12 60 69 89 131 65z m53 -492 l2 -248 -95 0 -95 0
0 250 0 251 93 -3 92 -3 3 -247z m247 220 c-1 -31 9 -37 19 -13 10 27 76 48
133 42 67 -7 105 -30 135 -81 21 -38 23 -53 26 -229 l4 -188 -94 3 -93 3 -5
185 -5 184 -33 10 c-27 7 -38 6 -59 -10 l-26 -19 2 -178 2 -177 -93 0 -94 0 1
250 0 251 90 -3 90 -3 0 -27z"/>
    </g>
</svg>
