<?xml version="1.0" encoding="UTF-8"?>
<!DOCTYPE svg PUBLIC "-//W3C//DTD SVG 1.1//EN" "http://www.w3.org/Graphics/SVG/1.1/DTD/svg11.dtd">
<svg xmlns="http://www.w3.org/2000/svg" version="1.1" width="850px" height="758px" style="shape-rendering:geometricPrecision; text-rendering:geometricPrecision; image-rendering:optimizeQuality; fill-rule:evenodd; clip-rule:evenodd" xmlns:xlink="http://www.w3.org/1999/xlink">
<g><path style="opacity:0.971" fill="#000000" d="M 209.5,161.5 C 211.25,165.587 209.917,167.087 205.5,166C 200.485,163.154 197.152,158.988 195.5,153.5C 192.202,154.551 188.868,155.051 185.5,155C 184.978,154.439 184.645,153.772 184.5,153C 185.608,150.888 187.108,149.054 189,147.5C 189.494,145.866 189.66,144.199 189.5,142.5C 185.207,142.923 181.374,144.589 178,147.5C 178.203,149.937 179.037,152.271 180.5,154.5C 179.923,156.55 178.59,157.55 176.5,157.5C 176.5,156.5 176.5,155.5 176.5,154.5C 172.5,155.833 168.5,157.167 164.5,158.5C 164.649,157.448 164.483,156.448 164,155.5C 151.972,158.935 141.472,165.102 132.5,174C 133.448,174.483 134.448,174.649 135.5,174.5C 135.919,177.325 134.919,179.491 132.5,181C 134.878,181.511 137.212,182.178 139.5,183C 141.257,185.846 143.257,188.512 145.5,191C 146.793,191.49 148.127,191.657 149.5,191.5C 149.116,194.769 147.782,197.603 145.5,200C 147.54,201.769 149.04,203.935 150,206.5C 154.167,201.313 158.334,196.146 162.5,191C 165.912,189.545 169.079,187.712 172,185.5C 172.434,182.821 172.268,180.154 171.5,177.5C 171.686,175.42 172.686,173.92 174.5,173C 172.095,170.968 172.595,169.468 176,168.5C 177.302,165.625 178.135,162.625 178.5,159.5C 183.067,160.789 187.734,161.789 192.5,162.5C 192.291,163.086 191.957,163.586 191.5,164C 192.793,164.49 194.127,164.657 195.5,164.5C 196.542,169.133 194.875,172.299 190.5,174C 193.833,174.667 197.167,174.667 200.5,174C 202.158,172.337 204.158,171.504 206.5,171.5C 206.151,175.382 205.485,179.215 204.5,183C 204.667,184.167 204.833,185.333 205,186.5C 209.726,190.292 209.559,193.792 204.5,197C 209.023,195.261 212.023,196.761 213.5,201.5C 213,202.5 212.5,203.5 212,204.5C 207.822,206.592 203.656,208.759 199.5,211C 193.163,211.066 186.83,211.066 180.5,211C 178.167,212 176.5,213.667 175.5,216C 178.224,216.27 180.891,216.77 183.5,217.5C 184.627,219.269 184.127,220.603 182,221.5C 181.441,225.553 182.941,228.72 186.5,231C 188.332,231.748 189.999,232.748 191.5,234C 191.043,234.414 190.709,234.914 190.5,235.5C 187.659,236.975 184.659,238.141 181.5,239C 179.168,242.424 176.835,242.757 174.5,240C 175.661,237.407 177.661,235.741 180.5,235C 171.958,236.11 164.958,240.11 159.5,247C 160.727,248.587 160.394,249.921 158.5,251C 155.623,252.127 152.623,252.794 149.5,253C 148.289,254.113 148.289,255.28 149.5,256.5C 146.903,260.346 144.236,264.179 141.5,268C 140.24,269.113 139.073,269.28 138,268.5C 137.202,271.893 136.202,275.226 135,278.5C 128.082,282.708 121.249,287.042 114.5,291.5C 113.813,293.274 112.98,294.941 112,296.5C 111.667,301.5 111.333,306.5 111,311.5C 110.052,317.925 107.385,318.925 103,314.5C 103.016,309.774 102.849,305.107 102.5,300.5C 100.78,299.066 98.7801,298.233 96.5,298C 95.8333,297 95.1667,296 94.5,295C 91.8333,294.333 89.1667,294.333 86.5,295C 84.982,296.848 83.1487,298.348 81,299.5C 79.647,298.315 78.4803,296.981 77.5,295.5C 71.9763,296.696 66.643,298.529 61.5,301C 57.9512,303.964 56.1179,307.797 56,312.5C 51.1723,318.317 49.1723,324.983 50,332.5C 51.8115,336.116 53.3115,339.783 54.5,343.5C 58.4724,342.892 62.4724,342.392 66.5,342C 68.1721,338.964 69.8387,335.964 71.5,333C 75.7809,330.891 79.9476,331.058 84,333.5C 85.0482,337.48 83.7149,340.48 80,342.5C 78.4996,346.894 76.9996,351.227 75.5,355.5C 79.4935,357.055 83.6602,358.055 88,358.5C 88.8675,360.684 89.7008,362.851 90.5,365C 89.4207,369.484 88.4207,373.984 87.5,378.5C 87.7449,381.918 89.4116,384.418 92.5,386C 98.2809,385.312 103.948,385.645 109.5,387C 112.991,381.543 117.491,377.043 123,373.5C 126.105,375.771 129.605,377.104 133.5,377.5C 134.5,378.833 135.5,380.167 136.5,381.5C 142.255,381.859 147.921,381.359 153.5,380C 157.282,383.737 160.949,387.571 164.5,391.5C 165.452,393.045 165.785,394.712 165.5,396.5C 172.056,397.815 178.723,398.982 185.5,400C 192.426,406.571 194.426,414.571 191.5,424C 195.659,457.979 206.659,489.479 224.5,518.5C 221.313,519.865 217.98,520.699 214.5,521C 211.943,521.685 210.109,523.185 209,525.5C 208.216,530.887 208.382,536.22 209.5,541.5C 208.282,545.38 206.615,549.047 204.5,552.5C 205.472,555.464 205.638,558.464 205,561.5C 203.391,562.147 201.891,562.98 200.5,564C 201.337,565.011 201.67,566.178 201.5,567.5C 197.333,567.849 193.333,568.682 189.5,570C 194.716,573.401 195.882,577.901 193,583.5C 189.185,584.949 185.352,586.449 181.5,588C 183.962,594.473 181.962,597.139 175.5,596C 180.158,602.049 180.492,608.216 176.5,614.5C 178.88,618.197 181.546,621.53 184.5,624.5C 183.611,627.279 182.444,629.945 181,632.5C 180.14,636.952 181.64,640.452 185.5,643C 188.418,644.709 191.252,646.542 194,648.5C 195.301,650.365 195.635,652.365 195,654.5C 191.591,655.622 188.091,655.789 184.5,655C 177.424,650.594 170.924,645.428 165,639.5C 161.674,633.188 159.34,626.521 158,619.5C 152.576,610.653 148.242,601.319 145,591.5C 144,590.5 143,589.5 142,588.5C 143.297,581.946 143.631,575.279 143,568.5C 141.238,560.597 140.238,552.597 140,544.5C 138.534,541.269 137.367,537.935 136.5,534.5C 138.139,523.007 137.306,511.674 134,500.5C 131.124,498.307 127.957,496.474 124.5,495C 121.794,492.629 119.461,489.963 117.5,487C 115.655,485.872 113.655,485.372 111.5,485.5C 112.12,481.019 110.787,477.352 107.5,474.5C 104.784,466.068 100.284,458.735 94,452.5C 92.0758,448.485 90.5758,444.318 89.5,440C 90.2887,438.374 91.2887,436.874 92.5,435.5C 90.7018,432.711 90.2018,429.711 91,426.5C 93.9212,421.659 96.5879,416.659 99,411.5C 100.154,410.257 101.488,409.257 103,408.5C 104.926,401.413 104.759,394.413 102.5,387.5C 100.692,387.491 99.0249,387.991 97.5,389C 98.3802,390.356 98.7135,391.856 98.5,393.5C 96.549,393.773 95.049,393.107 94,391.5C 93.2825,392.451 92.4491,392.617 91.5,392C 88.893,387.556 85.2263,384.39 80.5,382.5C 80.0514,377.841 78.718,373.508 76.5,369.5C 67.3677,367.443 60.7011,362.276 56.5,354C 55.5,353.333 54.5,353.333 53.5,354C 52.646,355.022 51.646,355.855 50.5,356.5C 44.9923,353.717 39.3256,351.217 33.5,349C 32.6667,348.167 31.8333,347.333 31,346.5C 27.8064,341.655 24.3064,337.155 20.5,333C 21.5979,330.54 22.5979,328.04 23.5,325.5C 20.3063,312.77 16.8063,300.104 13,287.5C 12.5006,292.823 12.334,298.156 12.5,303.5C 9.95046,303.439 8.45046,302.106 8,299.5C 6.5,292.833 5,286.167 3.5,279.5C 6.05411,273.819 4.72077,269.152 -0.5,265.5C -0.5,262.833 -0.5,260.167 -0.5,257.5C 1.41509,251.242 3.24842,244.909 5,238.5C 8,236.5 11,234.5 14,232.5C 13.8887,226.1 16.5554,221.433 22,218.5C 26.1796,212.13 28.6796,205.13 29.5,197.5C 29.2974,192.137 29.2974,186.804 29.5,181.5C 30.2547,179.012 31.7547,177.012 34,175.5C 34.3012,172.02 35.1345,168.687 36.5,165.5C 36.1132,163.726 35.4465,162.059 34.5,160.5C 34.8333,159.833 35.1667,159.167 35.5,158.5C 34.1667,157.833 32.8333,157.167 31.5,156.5C 28.98,151.068 24.98,149.235 19.5,151C 16.794,153.371 14.4606,156.037 12.5,159C 7.99086,160.631 3.65752,160.131 -0.5,157.5C -0.5,152.167 -0.5,146.833 -0.5,141.5C 6.07381,137.685 13.0738,134.518 20.5,132C 18.3911,130.859 16.5578,129.359 15,127.5C 14.3162,126.216 14.4829,125.049 15.5,124C 20.3635,125.204 25.3635,125.537 30.5,125C 31.9064,122.555 33.2398,120.055 34.5,117.5C 48.2244,111.957 62.2244,111.124 76.5,115C 79.7323,116.23 82.3989,118.23 84.5,121C 87.4709,121.471 90.1376,122.638 92.5,124.5C 95.6845,123.578 98.8511,122.578 102,121.5C 105.047,122.751 108.047,122.751 111,121.5C 114.504,123.347 118.337,124.347 122.5,124.5C 121.864,121.894 121.864,119.394 122.5,117C 127.781,113.776 133.281,110.943 139,108.5C 141.464,109.161 143.964,109.661 146.5,110C 148.647,113.115 151.147,115.948 154,118.5C 155.236,117.601 156.07,116.434 156.5,115C 154.987,113.121 154.321,110.954 154.5,108.5C 151.873,108.707 150.207,107.54 149.5,105C 154.926,99.3168 161.259,98.1501 168.5,101.5C 171.833,100.5 175.167,99.5 178.5,98.5C 180.274,98.8868 181.941,99.5535 183.5,100.5C 184.92,98.7798 186.253,96.9465 187.5,95C 194.099,95.9847 200.766,96.318 207.5,96C 212.162,91.3323 217.828,88.999 224.5,89C 236.809,87.5768 249.142,86.4101 261.5,85.5C 269.588,86.0255 276.755,87.3589 283,89.5C 286.587,89.715 289.921,89.0483 293,87.5C 295.508,88.8632 298.008,89.1965 300.5,88.5C 299.674,87.549 299.508,86.549 300,85.5C 302.991,86.8524 306.158,87.519 309.5,87.5C 319.111,85.8072 328.777,85.3072 338.5,86C 340.78,86.2326 342.78,87.066 344.5,88.5C 343.833,88.8333 343.167,89.1667 342.5,89.5C 337.021,88.0302 331.687,88.1968 326.5,90C 330.701,91.818 335.034,91.9847 339.5,90.5C 340.711,91.2739 340.711,92.1072 339.5,93C 337.754,93.4709 336.087,94.1376 334.5,95C 341.166,94.1713 347.832,93.0047 354.5,91.5C 355.833,91.8333 357.167,92.1667 358.5,92.5C 352.779,95.7814 347.279,99.448 342,103.5C 340.908,106.044 340.241,108.711 340,111.5C 339.535,112.931 338.701,114.097 337.5,115C 339.797,116.263 340.63,118.097 340,120.5C 336.749,124.422 332.916,127.588 328.5,130C 330.58,132.354 332.08,134.854 333,137.5C 328.552,139.661 326.385,138.328 326.5,133.5C 324.801,133.34 323.134,133.506 321.5,134C 321.73,136.286 323.063,138.119 325.5,139.5C 325.023,140.478 324.357,141.311 323.5,142C 307.632,148.62 291.965,155.62 276.5,163C 274.494,165.842 273.161,169.008 272.5,172.5C 270.415,174.611 268.248,176.611 266,178.5C 252.022,171.901 248.355,161.568 255,147.5C 258.387,144.113 261.721,140.779 265,137.5C 265.497,135.19 265.663,132.857 265.5,130.5C 263.396,130.799 261.396,130.466 259.5,129.5C 265.334,122.844 264.667,117.011 257.5,112C 254.571,111.223 251.737,111.39 249,112.5C 246.863,110.679 246.03,108.346 246.5,105.5C 251.496,105.93 252.33,104.597 249,101.5C 248.251,100.365 248.417,99.365 249.5,98.5C 253.731,97.0255 258.064,96.0255 262.5,95.5C 262.5,94.1667 262.5,92.8333 262.5,91.5C 264.989,91.7022 267.323,91.2022 269.5,90C 266.167,89.3333 262.833,89.3333 259.5,90C 251.769,94.1977 243.769,97.8644 235.5,101C 231.151,104.835 226.484,108.169 221.5,111C 219.167,111.333 216.833,111.667 214.5,112C 219.265,113.499 220.265,116.166 217.5,120C 219.516,123.597 220.849,127.431 221.5,131.5C 227.271,132.456 227.604,133.789 222.5,135.5C 221.417,136.365 221.251,137.365 222,138.5C 223.833,139.667 225.333,141.167 226.5,143C 227.793,143.49 229.127,143.657 230.5,143.5C 230.806,147.697 228.806,149.697 224.5,149.5C 222.348,155.678 220.348,155.678 218.5,149.5C 217.045,148.255 215.711,148.422 214.5,150C 215.573,153.12 216.573,156.287 217.5,159.5C 215.519,162.662 212.852,163.329 209.5,161.5 Z M 319.5,136.5 C 321.337,136.639 321.67,137.306 320.5,138.5C 319.702,138.043 319.369,137.376 319.5,136.5 Z M 166.5,154.5 C 167.696,151.779 169.696,150.613 172.5,151C 170.937,152.947 168.937,154.114 166.5,154.5 Z M 209.5,161.5 C 208.711,161.217 208.044,160.717 207.5,160C 208.816,159.472 209.483,159.972 209.5,161.5 Z M 124.5,379.5 C 125.249,380.531 125.915,381.698 126.5,383C 125.975,383.692 125.308,384.192 124.5,384.5C 123.948,382.997 123.948,381.331 124.5,379.5 Z"/></g>
<g><path style="opacity:0.976" fill="#000000" d="M 849.5,452.5 C 849.5,454.167 849.5,455.833 849.5,457.5C 848.167,459.833 848.167,462.167 849.5,464.5C 849.5,466.833 849.5,469.167 849.5,471.5C 846.001,468.834 843.001,465.667 840.5,462C 838.606,460.596 836.606,459.43 834.5,458.5C 833.558,458.608 832.725,458.941 832,459.5C 830.93,465.587 827.43,468.087 821.5,467C 818.905,460.31 815.405,454.143 811,448.5C 808.659,452.346 805.325,455.012 801,456.5C 800.2,459.867 799.034,463.034 797.5,466C 794.184,465.019 790.684,464.186 787,463.5C 783.364,463.827 779.864,464.66 776.5,466C 775.87,467.892 774.87,469.559 773.5,471C 770.493,471.301 767.493,471.135 764.5,470.5C 764.906,468.891 764.906,467.557 764.5,466.5C 761.065,468.386 757.398,469.386 753.5,469.5C 741.006,468.21 729.006,465.043 717.5,460C 714.059,458.224 710.892,456.057 708,453.5C 704.433,447.264 700.1,441.597 695,436.5C 692.333,429.833 689.667,423.167 687,416.5C 684,413.5 681,410.5 678,407.5C 677.696,404.287 679.196,402.287 682.5,401.5C 689.103,403.602 693.603,407.936 696,414.5C 696.167,413.667 696.333,412.833 696.5,412C 694.96,405.702 692.46,399.868 689,394.5C 688.313,392.432 688.48,390.432 689.5,388.5C 686.305,380.507 684.805,372.174 685,363.5C 683.833,361 682,359.167 679.5,358C 672.275,359.952 668.608,357.119 668.5,349.5C 656.83,349.728 645.163,350.062 633.5,350.5C 614.047,272.875 567.047,219.375 492.5,190C 454.979,176.843 416.646,173.676 377.5,180.5C 377.34,178.801 377.506,177.134 378,175.5C 385.424,170.078 391.424,163.412 396,155.5C 397.731,153.383 399.898,151.883 402.5,151C 404.257,148.154 406.257,145.488 408.5,143C 415.613,142.077 421.946,139.41 427.5,135C 435.189,131.773 441.523,133.439 446.5,140C 451.505,140.082 456.505,140.082 461.5,140C 466.817,142.58 467.483,145.913 463.5,150C 461.608,150.973 459.608,151.64 457.5,152C 460.459,154.33 463.793,154.996 467.5,154C 473.167,150.333 478.833,146.667 484.5,143C 489.054,141.259 493.721,139.926 498.5,139C 500.353,136.96 501.686,134.627 502.5,132C 507.476,132.473 512.142,134.14 516.5,137C 517.833,137.667 519.167,137.667 520.5,137C 517.983,134.651 515.65,132.151 513.5,129.5C 514.313,128.186 515.313,127.019 516.5,126C 520.625,125.146 524.625,125.48 528.5,127C 529.831,131.496 531.831,135.662 534.5,139.5C 534.833,139.333 535.167,139.167 535.5,139C 532.34,135.773 532.006,132.44 534.5,129C 539.49,129.979 544.49,130.979 549.5,132C 549.833,131.667 550.167,131.333 550.5,131C 548.612,128.81 546.445,126.977 544,125.5C 543.333,124.833 543.333,124.167 544,123.5C 558.707,111.699 575.207,108.199 593.5,113C 596.311,116.294 595.978,119.294 592.5,122C 593.833,122.167 595.167,122.333 596.5,122.5C 609.678,119.402 623.011,118.236 636.5,119C 639.128,120.626 641.461,122.626 643.5,125C 645.333,125.167 647.167,125.333 649,125.5C 662.605,123.508 676.272,122.174 690,121.5C 698.759,121.69 707.426,122.69 716,124.5C 717.833,124.333 719.667,124.167 721.5,124C 723.619,121.607 726.285,120.274 729.5,120C 736.833,119.333 744.167,119.333 751.5,120C 755.286,121.393 758.952,123.059 762.5,125C 766.614,124.58 770.614,124.913 774.5,126C 778.438,128.601 778.438,131.101 774.5,133.5C 770.566,129.16 767.233,129.493 764.5,134.5C 774.183,143.88 773.517,152.38 762.5,160C 767.213,168.051 772.713,175.551 779,182.5C 779.942,187.812 777.775,190.312 772.5,190C 769.438,188.939 766.938,187.106 765,184.5C 759.248,175.584 755.248,165.917 753,155.5C 751.981,154.313 750.814,153.313 749.5,152.5C 747.976,154.483 746.976,156.816 746.5,159.5C 744.183,157.758 742.683,155.424 742,152.5C 741.282,151.549 740.449,151.383 739.5,152C 738.718,154.74 738.218,157.574 738,160.5C 737.215,162.286 736.049,163.786 734.5,165C 729.03,167.08 723.363,168.413 717.5,169C 716.426,169.739 715.759,170.739 715.5,172C 716.974,175.114 718.307,178.281 719.5,181.5C 719.215,183.569 718.048,184.902 716,185.5C 715.323,187.982 716.156,189.815 718.5,191C 723.946,191.101 729.279,191.768 734.5,193C 737.333,197.167 740.833,200.667 745,203.5C 748.639,209.112 751.472,215.112 753.5,221.5C 752.098,227.417 751.265,233.417 751,239.5C 746.914,241.723 745.08,245.223 745.5,250C 744.703,256.542 747.37,260.875 753.5,263C 757.249,266.292 758.082,270.125 756,274.5C 754.989,275.337 753.822,275.67 752.5,275.5C 752.657,276.873 752.49,278.207 752,279.5C 751.282,280.451 750.449,280.617 749.5,280C 744.212,273.256 739.045,266.423 734,259.5C 732.915,258.707 731.748,258.04 730.5,257.5C 725.604,261.434 721.604,260.434 718.5,254.5C 716.343,256.412 714.009,258.079 711.5,259.5C 710.212,262.034 710.212,264.534 711.5,267C 716.487,268.571 721.32,270.404 726,272.5C 725.667,276.5 725.333,280.5 725,284.5C 729.51,289.733 733.843,295.066 738,300.5C 742.314,315.674 738.148,327.674 725.5,336.5C 723.956,332.069 720.789,330.403 716,331.5C 703.656,331.52 700.656,336.853 707,347.5C 717.352,355.228 721.352,365.561 719,378.5C 716.415,378.963 714.248,380.13 712.5,382C 710.167,382.667 707.833,382.667 705.5,382C 700,377.833 695.167,373 691,367.5C 690.232,380.533 694.566,391.533 704,400.5C 704.777,403.429 704.61,406.263 703.5,409C 706.662,412.575 707.328,416.575 705.5,421C 706.526,431.051 710.526,439.717 717.5,447C 720.998,448.967 724.332,448.633 727.5,446C 729.5,445.333 731.5,445.333 733.5,446C 747.933,456.62 763.599,458.953 780.5,453C 789.179,446.293 788.512,444.46 778.5,447.5C 779.263,443.862 777.93,442.362 774.5,443C 775.833,445.667 775.833,448.333 774.5,451C 770.037,450.59 765.87,449.09 762,446.5C 761.28,448.255 760.113,449.089 758.5,449C 756.386,442.502 754.22,436.002 752,429.5C 748.145,438.677 741.312,442.51 731.5,441C 723.851,435.869 720.351,428.702 721,419.5C 723.087,418.206 725.254,417.039 727.5,416C 729.833,413 732.167,410 734.5,407C 739.641,403.247 745.307,401.581 751.5,402C 756.285,405.26 756.619,408.927 752.5,413C 751.552,413.483 750.552,413.649 749.5,413.5C 750.161,416.813 751.994,419.48 755,421.5C 755.198,423.911 756.364,425.577 758.5,426.5C 760.562,425.271 762.729,424.271 765,423.5C 768.164,423.767 769.164,425.433 768,428.5C 767.075,429.047 766.242,429.713 765.5,430.5C 769.298,431.428 771.965,429.928 773.5,426C 775.137,425.399 776.803,424.899 778.5,424.5C 787.156,426.036 795.823,427.536 804.5,429C 808.11,430.944 811.443,433.277 814.5,436C 818.524,436.609 822.524,436.442 826.5,435.5C 829.028,435.763 831.361,436.596 833.5,438C 838.405,443.41 843.738,448.243 849.5,452.5 Z"/></g>
<g><path style="opacity:0.981" fill="#000000" d="M 407.5,195.5 C 492.465,195.544 556.298,231.878 599,304.5C 627.467,360.567 631.134,418.234 610,477.5C 578.026,552.793 521.526,596.626 440.5,609C 351.218,615.444 283.051,580.944 236,505.5C 205.556,448.435 201.223,389.435 223,328.5C 249.869,263.141 297.369,220.974 365.5,202C 379.497,198.835 393.497,196.669 407.5,195.5 Z M 406.5,252.5 C 470.495,251.415 518.328,278.415 550,333.5C 576.977,391.999 571.31,446.999 533,498.5C 489.491,547.093 435.991,563.26 372.5,547C 312.315,525.806 277.148,483.639 267,420.5C 262.408,355.512 287.575,306.012 342.5,272C 362.64,261.116 383.974,254.616 406.5,252.5 Z"/></g>
<g><path style="opacity:0.971" fill="#000000" d="M 795.5,478.5 C 799.015,478.879 802.348,479.879 805.5,481.5C 805.833,482.5 806.167,483.5 806.5,484.5C 806.069,486.754 805.403,488.921 804.5,491C 804.695,497.484 807.695,501.984 813.5,504.5C 815.383,504.124 816.883,503.124 818,501.5C 820.92,495.824 822.92,489.824 824,483.5C 825.333,482.167 826.667,482.167 828,483.5C 828.333,485.167 828.667,486.833 829,488.5C 830.667,490.833 832.333,493.167 834,495.5C 834.752,498.894 834.585,502.227 833.5,505.5C 834.154,507.115 834.654,508.782 835,510.5C 837.77,512.601 839.77,515.268 841,518.5C 842.518,527.24 844.352,535.906 846.5,544.5C 844.354,551.789 840.854,558.455 836,564.5C 825.309,574.191 814.976,584.191 805,594.5C 803.956,596.715 803.29,599.048 803,601.5C 800.238,602.981 797.571,604.647 795,606.5C 793.977,611.587 791.477,615.754 787.5,619C 784.504,619.666 782.504,618.499 781.5,615.5C 784.122,607.187 784.122,598.853 781.5,590.5C 783.066,587.425 785.233,584.758 788,582.5C 788.667,581.5 788.667,580.5 788,579.5C 784.169,582.099 780.335,582.099 776.5,579.5C 774.717,576.327 773.217,572.994 772,569.5C 769.458,565.812 765.958,564.146 761.5,564.5C 756.829,564.963 752.163,565.463 747.5,566C 745.18,568.648 742.514,570.981 739.5,573C 736.167,573 732.833,573 729.5,573C 723.258,578.348 718.258,577.348 714.5,570C 716.584,566.084 718.084,561.918 719,557.5C 719.455,550.47 719.455,543.47 719,536.5C 720.626,533.872 722.626,531.539 725,529.5C 726.613,524.087 729.78,519.92 734.5,517C 740.328,515.057 745.995,512.724 751.5,510C 754.37,507.628 756.703,504.795 758.5,501.5C 763.314,499.752 766.981,496.585 769.5,492C 771.274,491.03 773.107,490.196 775,489.5C 776.244,491.576 778.077,492.576 780.5,492.5C 780.261,490.533 780.594,488.699 781.5,487C 783.949,486.275 786.283,485.275 788.5,484C 790.469,481.511 792.802,479.678 795.5,478.5 Z"/></g>
<g><path style="opacity:0.955" fill="#000000" d="M 595.5,538.5 C 604.76,546.422 613.76,554.755 622.5,563.5C 607.177,577.656 592.01,591.989 577,606.5C 568.028,598.695 559.528,590.362 551.5,581.5C 563.789,571.048 575.956,560.382 588,549.5C 591.005,546.151 593.505,542.484 595.5,538.5 Z"/></g>
<g><path style="opacity:0.984" fill="#000000" d="M 649.5,570.5 C 656.902,571.133 663.568,573.633 669.5,578C 700,608.5 730.5,639 761,669.5C 770.509,681.925 770.842,694.591 762,707.5C 748.167,721.333 734.333,735.167 720.5,749C 709.056,757.192 697.389,757.525 685.5,750C 653.667,718.167 621.833,686.333 590,654.5C 582.667,642.833 582.667,631.167 590,619.5C 604.167,605.333 618.333,591.167 632.5,577C 637.713,573.323 643.38,571.156 649.5,570.5 Z"/></g>
</svg>
