<?xml version="1.0" encoding="UTF-8"?>
<!DOCTYPE svg PUBLIC "-//W3C//DTD SVG 1.1//EN" "http://www.w3.org/Graphics/SVG/1.1/DTD/svg11.dtd">
<svg xmlns="http://www.w3.org/2000/svg" version="1.1" width="800px" height="647px" style="shape-rendering:geometricPrecision; text-rendering:geometricPrecision; image-rendering:optimizeQuality; fill-rule:evenodd; clip-rule:evenodd" xmlns:xlink="http://www.w3.org/1999/xlink">
<g><path style="opacity:0.99" fill="#000000" d="M 15.5,-0.5 C 270.5,-0.5 525.5,-0.5 780.5,-0.5C 789.833,2.83333 796.167,9.16667 799.5,18.5C 799.5,38.1667 799.5,57.8333 799.5,77.5C 632.5,77.6667 465.5,77.5 298.5,77C 286.138,64.3037 273.471,51.9704 260.5,40C 214.167,39.3333 167.833,39.3333 121.5,40C 108.529,51.9704 95.8623,64.3037 83.5,77C 55.502,77.5 27.502,77.6666 -0.5,77.5C -0.5,55.5 -0.5,33.5 -0.5,11.5C 3.75666,6.04104 9.08999,2.04104 15.5,-0.5 Z M 652.5,26.5 C 665.855,25.5679 671.021,31.5679 668,44.5C 660.667,52.5 653.333,52.5 646,44.5C 643.15,36.5419 645.316,30.5419 652.5,26.5 Z M 704.5,26.5 C 714.035,25.0364 719.702,29.0364 721.5,38.5C 718.476,50.3441 711.476,53.5107 700.5,48C 694.229,39.2901 695.563,32.1235 704.5,26.5 Z M 755.5,26.5 C 768.32,25.1527 773.82,30.8194 772,43.5C 766.932,50.8683 760.432,52.3683 752.5,48C 746.509,39.7542 747.509,32.5875 755.5,26.5 Z"/></g>
<g><path style="opacity:0.991" fill="#000000" d="M 799.5,102.5 C 799.5,277.833 799.5,453.167 799.5,628.5C 795.915,636.42 790.248,642.42 782.5,646.5C 526.167,646.5 269.833,646.5 13.5,646.5C 7.925,643.594 3.25834,639.594 -0.5,634.5C -0.5,457.167 -0.5,279.833 -0.5,102.5C 29.8352,102.667 60.1685,102.5 90.5,102C 92.7254,101.439 94.7254,100.439 96.5,99C 108.167,87.3333 119.833,75.6667 131.5,64C 171.167,63.3333 210.833,63.3333 250.5,64C 263.228,77.3972 276.562,90.0639 290.5,102C 460.166,102.5 629.833,102.667 799.5,102.5 Z M 156.5,129.5 C 214.099,129.028 253.599,155.361 275,208.5C 288.698,257.389 277.198,299.222 240.5,334C 199.267,365.485 155.267,369.819 108.5,347C 59.9744,316.089 41.4744,272.256 53,215.5C 69.5464,165.112 104.046,136.446 156.5,129.5 Z M 333.5,155.5 C 341.833,155.5 350.167,155.5 358.5,155.5C 358.5,297.5 358.5,439.5 358.5,581.5C 350.167,581.5 341.833,581.5 333.5,581.5C 333.5,439.5 333.5,297.5 333.5,155.5 Z M 424.5,226.5 C 465.167,226.5 505.833,226.5 546.5,226.5C 546.488,261.442 546.488,296.109 546.5,330.5C 557.478,322.023 568.311,313.357 579,304.5C 590,313.167 601,321.833 612,330.5C 612.5,295.835 612.667,261.168 612.5,226.5C 653.167,226.5 693.833,226.5 734.5,226.5C 734.5,321.167 734.5,415.833 734.5,510.5C 631.167,510.5 527.833,510.5 424.5,510.5C 424.5,415.833 424.5,321.167 424.5,226.5 Z M 48.5,415.5 C 73.9946,414.502 99.6612,414.169 125.5,414.5C 125.5,422.833 125.5,431.167 125.5,439.5C 100.167,439.5 74.8333,439.5 49.5,439.5C 49.8257,431.316 49.4924,423.316 48.5,415.5 Z M 49.5,479.5 C 96.5,479.5 143.5,479.5 190.5,479.5C 190.5,487.5 190.5,495.5 190.5,503.5C 143.5,503.5 96.5,503.5 49.5,503.5C 49.5,495.5 49.5,487.5 49.5,479.5 Z M 49.5,544.5 C 118.167,544.5 186.833,544.5 255.5,544.5C 255.5,552.5 255.5,560.5 255.5,568.5C 186.833,568.5 118.167,568.5 49.5,568.5C 49.5,560.5 49.5,552.5 49.5,544.5 Z"/></g>
<g><path style="opacity:0.977" fill="#000000" d="M 157.5,180.5 C 181.361,178.921 195.028,189.921 198.5,213.5C 196.991,229.501 188.657,240.001 173.5,245C 182.908,245.082 192.241,245.749 201.5,247C 209.653,251.151 214.82,257.651 217,266.5C 217.667,284.5 217.667,302.5 217,320.5C 195.583,335.045 172.083,339.878 146.5,335C 134.403,332.199 123.236,327.365 113,320.5C 112.333,302.5 112.333,284.5 113,266.5C 115.428,257.073 121.094,250.406 130,246.5C 138.798,245.708 147.632,245.208 156.5,245C 141.111,240.113 133.111,229.613 132.5,213.5C 133.364,196.746 141.698,185.746 157.5,180.5 Z"/></g>
</svg>
