<?xml version="1.0" encoding="UTF-8"?>
<!DOCTYPE svg PUBLIC "-//W3C//DTD SVG 1.1//EN" "http://www.w3.org/Graphics/SVG/1.1/DTD/svg11.dtd">
<svg xmlns="http://www.w3.org/2000/svg" version="1.1" width="850px" height="1010px" style="shape-rendering:geometricPrecision; text-rendering:geometricPrecision; image-rendering:optimizeQuality; fill-rule:evenodd; clip-rule:evenodd" xmlns:xlink="http://www.w3.org/1999/xlink">
<g><path style="opacity:0.972" fill="#000000" d="M 179.5,146.5 C 343.5,146.333 507.5,146.5 671.5,147C 677.333,148.833 681.167,152.667 683,158.5C 683.667,216.167 683.667,273.833 683,331.5C 680.833,337 677,340.833 671.5,343C 621.168,343.5 570.834,343.667 520.5,343.5C 520.667,393.834 520.5,444.168 520,494.5C 518.037,500.731 513.87,504.564 507.5,506C 450.833,506.667 394.167,506.667 337.5,506C 330.797,504.3 326.297,500.133 324,493.5C 323.5,443.501 323.333,393.501 323.5,343.5C 275.499,343.667 227.499,343.5 179.5,343C 171.785,339.896 167.451,334.229 166.5,326C 167.833,272 167.833,218 166.5,164C 167.579,155.647 171.913,149.814 179.5,146.5 Z M 201.5,180.5 C 242.167,180.5 282.833,180.5 323.5,180.5C 323.5,223.5 323.5,266.5 323.5,309.5C 282.833,309.5 242.167,309.5 201.5,309.5C 201.5,266.5 201.5,223.5 201.5,180.5 Z M 364.5,180.5 C 405.167,180.5 445.833,180.5 486.5,180.5C 486.5,223.5 486.5,266.5 486.5,309.5C 445.833,309.5 405.167,309.5 364.5,309.5C 364.5,266.5 364.5,223.5 364.5,180.5 Z M 520.5,180.5 C 563.5,180.5 606.5,180.5 649.5,180.5C 649.5,223.5 649.5,266.5 649.5,309.5C 606.5,309.5 563.5,309.5 520.5,309.5C 520.5,266.5 520.5,223.5 520.5,180.5 Z M 357.5,344.5 C 400.33,343.501 443.33,343.168 486.5,343.5C 486.667,386.501 486.5,429.501 486,472.5C 443.238,471.67 400.404,471.17 357.5,471C 358.832,428.736 358.832,386.569 357.5,344.5 Z"/></g>
<g><path style="opacity:0.967" fill="#000000" d="M 849.5,499.5 C 849.5,665.5 849.5,831.5 849.5,997.5C 847.249,1002.75 843.582,1006.75 838.5,1009.5C 563.167,1009.5 287.833,1009.5 12.5,1009.5C 7.13323,1006.63 3.2999,1002.29 1,996.5C 0.333333,829.833 0.333333,663.167 1,496.5C 3.14071,490.359 7.30738,486.193 13.5,484C 70.8333,483.333 128.167,483.333 185.5,484C 191.667,486.167 195.833,490.333 198,496.5C 198.5,547.832 198.667,599.166 198.5,650.5C 249.168,650.333 299.834,650.5 350.5,651C 355.884,654.048 359.384,658.548 361,664.5C 361.5,713.832 361.667,763.166 361.5,812.5C 404.167,812.5 446.833,812.5 489.5,812.5C 489.333,762.832 489.5,713.166 490,663.5C 491.336,657.499 494.836,653.332 500.5,651C 551.166,650.5 601.832,650.333 652.5,650.5C 652.333,600.166 652.5,549.832 653,499.5C 654.859,493.64 658.693,489.807 664.5,488C 722.167,487.333 779.833,487.333 837.5,488C 843.35,490.019 847.35,493.852 849.5,499.5 Z M 35.5,517.5 C 78.1667,517.5 120.833,517.5 163.5,517.5C 163.5,560.5 163.5,603.5 163.5,646.5C 120.833,646.5 78.1667,646.5 35.5,646.5C 35.5,603.5 35.5,560.5 35.5,517.5 Z M 686.5,521.5 C 729.5,521.5 772.5,521.5 815.5,521.5C 815.5,564.5 815.5,607.5 815.5,650.5C 772.5,650.5 729.5,650.5 686.5,650.5C 686.5,607.5 686.5,564.5 686.5,521.5 Z M 35.5,684.5 C 78.1667,684.5 120.833,684.5 163.5,684.5C 163.5,727.167 163.5,769.833 163.5,812.5C 120.833,812.5 78.1667,812.5 35.5,812.5C 35.5,769.833 35.5,727.167 35.5,684.5 Z M 198.5,684.5 C 241.167,684.5 283.833,684.5 326.5,684.5C 326.5,727.167 326.5,769.833 326.5,812.5C 283.833,812.5 241.167,812.5 198.5,812.5C 198.5,769.833 198.5,727.167 198.5,684.5 Z M 524.5,684.5 C 567.167,684.5 609.833,684.5 652.5,684.5C 652.5,727.167 652.5,769.833 652.5,812.5C 609.833,812.5 567.167,812.5 524.5,812.5C 524.5,769.833 524.5,727.167 524.5,684.5 Z M 686.5,684.5 C 729.5,684.5 772.5,684.5 815.5,684.5C 815.5,727.167 815.5,769.833 815.5,812.5C 772.5,812.5 729.5,812.5 686.5,812.5C 686.5,769.833 686.5,727.167 686.5,684.5 Z M 35.5,847.5 C 78.1667,847.5 120.833,847.5 163.5,847.5C 163.5,890.167 163.5,932.833 163.5,975.5C 120.833,975.5 78.1667,975.5 35.5,975.5C 35.5,932.833 35.5,890.167 35.5,847.5 Z M 198.5,847.5 C 241.167,847.5 283.833,847.5 326.5,847.5C 326.5,890.167 326.5,932.833 326.5,975.5C 283.833,975.5 241.167,975.5 198.5,975.5C 198.5,932.833 198.5,890.167 198.5,847.5 Z M 361.5,847.5 C 404.167,847.5 446.833,847.5 489.5,847.5C 489.5,890.167 489.5,932.833 489.5,975.5C 446.833,975.5 404.167,975.5 361.5,975.5C 361.5,932.833 361.5,890.167 361.5,847.5 Z M 524.5,847.5 C 567.167,847.5 609.833,847.5 652.5,847.5C 652.5,890.167 652.5,932.833 652.5,975.5C 609.833,975.5 567.167,975.5 524.5,975.5C 524.5,932.833 524.5,890.167 524.5,847.5 Z M 686.5,847.5 C 729.5,847.5 772.5,847.5 815.5,847.5C 815.5,890.167 815.5,932.833 815.5,975.5C 772.5,975.5 729.5,975.5 686.5,975.5C 686.5,932.833 686.5,890.167 686.5,847.5 Z"/></g>
</svg>
