<?xml version="1.0" encoding="UTF-8"?>
<!DOCTYPE svg PUBLIC "-//W3C//DTD SVG 1.1//EN" "http://www.w3.org/Graphics/SVG/1.1/DTD/svg11.dtd">
<svg xmlns="http://www.w3.org/2000/svg" version="1.1" width="850px" height="896px" style="shape-rendering:geometricPrecision; text-rendering:geometricPrecision; image-rendering:optimizeQuality; fill-rule:evenodd; clip-rule:evenodd" xmlns:xlink="http://www.w3.org/1999/xlink">
<g><path style="opacity:0.972" fill="#000000" d="M 86.5,-0.5 C 99.1667,-0.5 111.833,-0.5 124.5,-0.5C 124.5,11.8333 124.5,24.1667 124.5,36.5C 161.167,36.5 197.833,36.5 234.5,36.5C 234.5,24.1667 234.5,11.8333 234.5,-0.5C 247.5,-0.5 260.5,-0.5 273.5,-0.5C 273.5,11.8333 273.5,24.1667 273.5,36.5C 310.167,36.5 346.833,36.5 383.5,36.5C 383.5,24.1667 383.5,11.8333 383.5,-0.5C 396.167,-0.5 408.833,-0.5 421.5,-0.5C 421.5,11.8333 421.5,24.1667 421.5,36.5C 458.5,36.5 495.5,36.5 532.5,36.5C 532.5,24.1667 532.5,11.8333 532.5,-0.5C 545.167,-0.5 557.833,-0.5 570.5,-0.5C 570.5,11.8333 570.5,24.1667 570.5,36.5C 601.5,36.5 632.5,36.5 663.5,36.5C 663.5,321.833 663.5,607.167 663.5,892.5C 442.167,892.5 220.833,892.5 -0.5,892.5C -0.5,607.167 -0.5,321.833 -0.5,36.5C 28.5,36.5 57.5,36.5 86.5,36.5C 86.5,24.1667 86.5,11.8333 86.5,-0.5 Z M 31.5,74.5 C 49.8333,74.5 68.1667,74.5 86.5,74.5C 86.8303,81.5316 86.497,88.5316 85.5,95.5C 58.2761,108.28 46.4428,129.613 50,159.5C 59.6931,192.103 81.5264,206.936 115.5,204C 148.019,194.811 163.185,173.311 161,139.5C 157.039,118.24 145.039,103.574 125,95.5C 124.5,88.5079 124.334,81.5079 124.5,74.5C 161.167,74.5 197.833,74.5 234.5,74.5C 234.666,81.5079 234.5,88.5079 234,95.5C 208.208,107.066 196.208,127.066 198,155.5C 204.263,185.971 222.93,202.304 254,204.5C 275.43,203.955 291.763,194.622 303,176.5C 315.41,150.889 311.91,127.722 292.5,107C 286.888,102.277 280.721,98.4438 274,95.5C 273.5,88.5079 273.334,81.5079 273.5,74.5C 310.167,74.5 346.833,74.5 383.5,74.5C 383.666,81.5079 383.5,88.5079 383,95.5C 356.065,107.357 344.065,128.024 347,157.5C 353.755,187.091 372.255,202.758 402.5,204.5C 427.255,203.707 444.755,192.04 455,169.5C 464.681,135.86 453.848,111.193 422.5,95.5C 421.503,88.5316 421.17,81.5316 421.5,74.5C 458.5,74.5 495.5,74.5 532.5,74.5C 532.83,81.5316 532.497,88.5316 531.5,95.5C 501.014,110.441 489.847,134.441 498,167.5C 513.997,200.41 539.497,211.243 574.5,200C 598.552,187.069 609.385,166.903 607,139.5C 602.56,118.607 590.56,103.94 571,95.5C 570.5,88.5079 570.334,81.5079 570.5,74.5C 588.5,74.5 606.5,74.5 624.5,74.5C 624.667,334.5 624.5,594.5 624,854.5C 426.667,853.167 229.333,853.167 32,854.5C 31.5,594.5 31.3333,334.5 31.5,74.5 Z M 101.5,130.5 C 113.001,129.487 120.167,134.487 123,145.5C 123.339,160.16 116.172,166.994 101.5,166C 88.9474,161.698 84.7807,153.198 89,140.5C 91.8871,135.434 96.0537,132.101 101.5,130.5 Z M 249.5,130.5 C 259.679,129.172 266.846,133.172 271,142.5C 273.478,156.346 267.811,164.346 254,166.5C 237.991,163.151 232.991,153.818 239,138.5C 241.806,134.853 245.306,132.186 249.5,130.5 Z M 398.5,130.5 C 413.666,130.165 420.833,137.498 420,152.5C 416.617,162.945 409.45,167.445 398.5,166C 385.025,160.301 381.525,150.801 388,137.5C 390.998,134.262 394.498,131.929 398.5,130.5 Z M 547.5,130.5 C 558.7,129.884 565.867,134.884 569,145.5C 569.329,160.17 562.163,167.004 547.5,166C 534.139,160.933 530.306,151.767 536,138.5C 538.961,134.34 542.795,131.673 547.5,130.5 Z"/></g>
<g><path style="opacity:0.976" fill="#000000" d="M 733.5,-0.5 C 760.5,-0.5 787.5,-0.5 814.5,-0.5C 832.465,4.79832 844.132,16.465 849.5,34.5C 849.5,278.833 849.5,523.167 849.5,767.5C 825.355,808.445 801.688,849.778 778.5,891.5C 752.333,850.5 726.167,809.5 700,768.5C 699.333,523.5 699.333,278.5 700,33.5C 704.682,15.6521 715.849,4.31874 733.5,-0.5 Z M 740.5,37.5 C 763.169,37.3334 785.836,37.5 808.5,38C 809,38.5 809.5,39 810,39.5C 810.5,57.1635 810.667,74.8302 810.5,92.5C 786.167,92.5 761.833,92.5 737.5,92.5C 737.333,75.1635 737.5,57.8301 738,40.5C 738.698,39.3094 739.531,38.3094 740.5,37.5 Z M 737.5,130.5 C 761.833,130.5 786.167,130.5 810.5,130.5C 810.5,334.5 810.5,538.5 810.5,742.5C 786.167,742.5 761.833,742.5 737.5,742.5C 737.5,538.5 737.5,334.5 737.5,130.5 Z M 753.5,781.5 C 767.994,780.339 782.661,780.172 797.5,781C 790.374,792.751 783.374,804.584 776.5,816.5C 768.561,804.939 760.894,793.273 753.5,781.5 Z"/></g>
<g><path style="opacity:0.968" fill="#000000" d="M 202.5,227.5 C 212.079,235.575 221.246,244.242 230,253.5C 230.667,254.167 230.667,254.833 230,255.5C 193.96,291.874 157.627,327.874 121,363.5C 104.193,338.685 87.3599,313.852 70.5,289C 80.9955,281.84 91.4955,274.673 102,267.5C 110.57,279.631 118.904,291.964 127,304.5C 152.752,279.249 177.919,253.582 202.5,227.5 Z"/></g>
<g><path style="opacity:0.973" fill="#000000" d="M 271.5,296.5 C 377.5,296.5 483.5,296.5 589.5,296.5C 589.5,309.167 589.5,321.833 589.5,334.5C 483.5,334.5 377.5,334.5 271.5,334.5C 271.5,321.833 271.5,309.167 271.5,296.5 Z"/></g>
<g><path style="opacity:0.958" fill="#000000" d="M 202.5,382.5 C 212.079,390.575 221.246,399.242 230,408.5C 230.667,409.167 230.667,409.833 230,410.5C 193.96,446.874 157.627,482.874 121,518.5C 104.193,493.685 87.3599,468.852 70.5,444C 80.9302,436.704 91.4302,429.537 102,422.5C 110.57,434.631 118.904,446.964 127,459.5C 152.173,433.8 177.34,408.134 202.5,382.5 Z"/></g>
<g><path style="opacity:0.974" fill="#000000" d="M 271.5,445.5 C 377.5,445.5 483.5,445.5 589.5,445.5C 589.5,458.167 589.5,470.833 589.5,483.5C 483.5,483.5 377.5,483.5 271.5,483.5C 271.5,470.833 271.5,458.167 271.5,445.5 Z"/></g>
<g><path style="opacity:0.972" fill="#000000" d="M 202.5,537.5 C 212.426,545.757 221.759,554.757 230.5,564.5C 193.825,600.675 157.325,637.008 121,673.5C 103.997,648.655 87.1642,623.655 70.5,598.5C 81.1028,591.618 91.6028,584.618 102,577.5C 110.323,589.47 118.657,601.47 127,613.5C 152.368,588.299 177.535,562.965 202.5,537.5 Z"/></g>
<g><path style="opacity:0.951" fill="#000000" d="M 271.5,593.5 C 377.5,593.5 483.5,593.5 589.5,593.5C 589.5,606.5 589.5,619.5 589.5,632.5C 483.5,632.5 377.5,632.5 271.5,632.5C 271.5,619.5 271.5,606.5 271.5,593.5 Z"/></g>
<g><path style="opacity:0.971" fill="#000000" d="M 202.5,692.5 C 212.246,700.742 221.579,709.575 230.5,719C 193.978,755.522 157.478,792.022 121,828.5C 103.997,803.655 87.1642,778.655 70.5,753.5C 80.7587,746.122 91.2587,739.122 102,732.5C 110.697,744.206 119.03,756.206 127,768.5C 152.368,743.299 177.535,717.965 202.5,692.5 Z"/></g>
<g><path style="opacity:0.973" fill="#000000" d="M 271.5,742.5 C 377.5,742.5 483.5,742.5 589.5,742.5C 589.5,755.167 589.5,767.833 589.5,780.5C 483.5,780.5 377.5,780.5 271.5,780.5C 271.5,767.833 271.5,755.167 271.5,742.5 Z"/></g>
</svg>
