<?xml version="1.0" standalone="no"?>
<!DOCTYPE svg PUBLIC "-//W3C//DTD SVG 20010904//EN"
 "http://www.w3.org/TR/2001/REC-SVG-20010904/DTD/svg10.dtd">
<svg version="1.0" xmlns="http://www.w3.org/2000/svg"
 width="125.000000pt" height="125.000000pt" viewBox="0 0 125.000000 125.000000"
 preserveAspectRatio="xMidYMid meet">

<g transform="translate(0.000000,125.000000) scale(0.100000,-0.100000)"
fill="current" stroke="none">
<path d="M131 1235 c-53 -17 -88 -48 -112 -100 -17 -37 -19 -74 -19 -493 0
-311 4 -468 12 -499 14 -57 68 -114 124 -131 53 -15 960 -17 1016 -2 20 6 50
23 67 39 l31 29 0 504 c0 297 -4 517 -10 537 -12 42 -43 76 -95 104 -39 22
-50 22 -505 24 -372 2 -474 -1 -509 -12z m919 -339 c0 -2 -19 -14 -42 -26 -24
-12 -116 -63 -206 -112 l-164 -89 -196 106 c-108 59 -201 111 -206 116 -6 5
159 9 402 9 227 0 412 -2 412 -4z m-633 -217 c110 -60 210 -109 220 -109 11 0
115 52 231 115 117 63 214 115 217 115 3 0 5 -106 5 -235 l0 -235 -455 0 -455
0 0 236 c0 221 1 236 18 229 9 -3 108 -55 219 -116z"/>
</g>
</svg>
